<svg width="100" height="100" viewBox="0 0 55 55" fill="none" xmlns="http://www.w3.org/2000/svg">
<circle cx="27.37" cy="27.37" r="27.37" fill="#9448BC"/>
<path d="M33.9223 23.2959C35.6596 23.2959 37.3256 22.6822 38.554 21.5899C39.7826 20.4976 40.4727 19.0161 40.4727 17.4714C40.4727 15.9266 39.7826 14.4451 38.554 13.3528C37.3256 12.2605 35.6596 11.6468 33.9223 11.6468H20.8216C19.0853 11.6468 17.4202 12.2601 16.1925 13.3518C14.9647 14.4435 14.275 15.9241 14.275 17.4679C14.275 19.0118 14.9647 20.4924 16.1925 21.5841C17.4202 22.6758 19.0853 23.2891 20.8216 23.2891C19.0843 23.2891 17.4182 23.9027 16.1897 24.995C14.9613 26.0874 14.2712 27.5688 14.2712 29.1136C14.2712 30.6584 14.9613 32.1399 16.1897 33.2322C17.4182 34.3244 19.0843 34.9381 20.8216 34.9381C19.526 34.9374 18.2593 35.2783 17.1817 35.9179C16.1041 36.5574 15.2639 37.4665 14.7674 38.5306C14.2709 39.5946 14.1405 40.7657 14.3925 41.8956C14.6445 43.0257 15.2676 44.0639 16.1832 44.8789C17.0987 45.6938 18.2655 46.2492 19.536 46.4745C20.8065 46.7001 22.1237 46.5855 23.3209 46.1452C24.5181 45.705 25.5416 44.959 26.262 44.0014C26.9824 43.044 27.3673 41.9181 27.3681 40.7662V23.2959H33.9223ZM33.9223 23.2959C32.6275 23.2959 31.3618 23.6373 30.2852 24.2769C29.2087 24.9166 28.3696 25.8257 27.8741 26.8894C27.3786 27.953 27.249 29.1235 27.5016 30.2527C27.7541 31.3819 28.3776 32.4191 29.2932 33.2332C30.2087 34.0473 31.3752 34.6018 32.6451 34.8263C33.915 35.051 35.2313 34.9357 36.4274 34.495C37.6237 34.0545 38.6461 33.3083 39.3655 32.3511C40.0848 31.3938 40.4687 30.2683 40.4687 29.117C40.4685 27.5732 39.7789 26.0927 38.5512 25.0011C37.3234 23.9094 35.6585 23.2961 33.9223 23.2959Z" fill="white"/>
</svg>
