<svg width="100" height="100" viewBox="0 0 55 55" fill="none" xmlns="http://www.w3.org/2000/svg">
<circle cx="27.3722" cy="27.3722" r="27.3722" fill="#479645"/>
<path d="M12.4398 12.7443C12.1185 12.7443 11.858 13.0048 11.858 13.3261L11.858 44.1625C11.858 44.484 12.1184 44.7443 12.4398 44.7443H43.2761C43.5976 44.7443 43.858 44.484 43.858 44.1625V13.3261C43.858 13.0048 43.5976 12.7443 43.2761 12.7443H12.4398ZM12.4349 13.9208C12.4349 13.5995 12.6954 13.339 13.0168 13.339H42.5756C42.8971 13.339 43.1574 13.5995 43.1574 13.9208V43.4568C43.1574 43.7782 42.8971 44.0386 42.5756 44.0386H13.0168C12.6954 44.0386 12.4349 43.7782 12.4349 43.4568V13.9208ZM29.2829 19.0713C28.2041 19.0713 27.5726 19.6478 27.5726 20.7257C27.5726 21.8206 28.2059 22.4329 29.2829 22.4329C30.3786 22.4329 31.0101 21.8189 31.0101 20.724C31.0101 19.6461 30.3786 19.0713 29.2829 19.0713ZM35.123 20.8706C34.8239 20.8706 34.5765 21.0983 34.5298 21.3936C34.2965 22.8709 33.7371 23.5969 32.5832 23.8663C32.2948 23.9336 32.0701 24.1765 32.0701 24.4726V25.0626C32.0701 25.384 32.3312 25.6445 32.6525 25.6417C33.5787 25.6334 33.5379 25.6209 33.5379 25.8269V30.8037C33.5379 32.9391 34.393 33.8055 36.6614 33.8055C37.5604 33.7945 38.4483 33.6193 39.2818 33.2901C39.5509 33.1839 39.6802 32.8841 39.5943 32.6079L39.4067 32.0042C39.3072 31.6843 38.958 31.519 38.6352 31.6087C36.1972 32.286 36.3302 30.4646 36.3302 30.171V26.2229C36.3302 25.9015 36.5908 25.6411 36.9121 25.6411H38.6415C38.9628 25.6411 39.2233 25.3805 39.2233 25.0592V24.3297C39.2233 24.0084 38.9628 23.7479 38.6415 23.7479H36.9121C36.5908 23.7479 36.3302 23.4874 36.3302 23.1661V21.4525C36.3302 21.1311 36.0698 20.8706 35.7484 20.8706H35.123ZM20.5064 23.9389C18.53 23.9474 16.1455 24.7354 16.1455 27.6331C16.1455 28.6526 16.5256 29.4534 17.094 29.9918C17.3897 30.272 17.4589 30.7681 17.1624 31.0476C16.4131 31.754 16.0517 32.1892 16.0517 32.7565C16.0517 33.0132 16.1061 33.2553 16.2348 33.4681C16.4486 33.8216 16.5479 34.3176 16.2952 34.6446C16.0091 35.0147 15.8486 35.4033 15.8486 35.951C15.8486 37.4349 17.1662 38.3098 20.5849 38.3098C23.8927 38.3098 25.8078 37.0818 25.8078 34.9107C25.8078 32.3209 23.9405 32.2722 19.5501 32.0104C19.1797 31.9883 18.9679 31.5777 19.1652 31.2634C19.2804 31.0798 19.5011 30.9949 19.7147 31.0318C21.276 31.3014 24.8964 31.1327 24.8964 27.7985C24.8964 27.4447 24.8381 27.1336 24.7453 26.8604C24.5934 26.4131 24.8415 25.8393 25.3125 25.8039L25.3976 25.7975C25.7012 25.7747 25.9358 25.5217 25.9358 25.2173V24.7203C25.9358 24.399 25.6753 24.1385 25.354 24.1385H22.3089C22.2624 24.1385 22.216 24.1328 22.1707 24.1222C21.6254 23.9946 21.0666 23.9331 20.5064 23.9389ZM27.5458 23.956C27.2543 23.956 27.0078 24.1716 26.9691 24.4605L26.8932 25.0272C26.8565 25.3011 27.0181 25.5634 27.2804 25.6505C28.0262 25.898 28.0932 25.9049 28.0932 26.238V31.827C28.0932 32.1713 28.0799 32.1741 27.3352 32.2658C27.046 32.3014 26.8302 32.5477 26.8302 32.8391V33.2237C26.8302 33.545 27.0907 33.8055 27.412 33.8055H31.6555C31.9769 33.8055 32.2373 33.545 32.2373 33.2237V32.8392C32.2373 32.5478 32.0217 32.3013 31.7327 32.2626L31.2696 32.2006C30.9914 32.163 30.9726 32.1238 30.9726 31.8253V24.5378C30.9726 24.2165 30.7121 23.956 30.3908 23.956H27.5458ZM20.6618 25.8269C22.983 25.8269 23.0393 29.1357 20.6054 29.1357C18.1527 29.1357 18.2637 25.8269 20.6618 25.8269ZM18.392 34.7693C18.5047 34.6095 18.6973 34.527 18.8923 34.5405C22.2483 34.7745 22.983 34.7069 22.983 35.4104C22.983 36.9146 18.0947 36.9146 18.0947 35.5212C18.0947 35.2476 18.226 35.0044 18.392 34.7693Z" fill="white"/>
</svg>
