<svg width="100" height="100" viewBox="0 0 55 55" fill="none" xmlns="http://www.w3.org/2000/svg">
<circle cx="27.37" cy="27.37" r="27.37" fill="#DE611A"/>
<path d="M10.8893 11.6832L11.0326 13.3651L13.7077 43.7836L13.8033 44.8408L14.8065 45.1291L26.9401 48.541L27.3222 48.6371L27.7522 48.541L39.8858 45.1772L40.8889 44.8888L40.9845 43.8316L43.7074 13.3651L43.8507 11.7313H42.1787L12.5613 11.6832H10.8893ZM14.2332 14.7587L40.5068 14.8067L38.0227 42.4861L27.37 45.4655L16.6695 42.4861L14.2332 14.7587ZM17.9115 19.3719L18.9147 30.8569H32.0037L31.5738 35.8065L27.37 36.9598H27.3222L23.1185 35.8065L22.8796 32.6349H19.058L19.5835 38.7379L27.3222 40.9003H27.37L35.1088 38.7379L36.1597 27.0606H22.3541L22.0197 23.1682H36.4941L36.8285 19.3719H17.9115Z" fill="white"/>
</svg>
