<svg width="100" height="100" viewBox="0 0 55 55" fill="none" xmlns="http://www.w3.org/2000/svg">
<circle cx="27.37" cy="27.37" r="27.37" fill="#E1AA1C"/>
<path d="M13.1175 12.2291C11.9933 12.2291 11.0645 13.158 11.0645 14.2822V42.496C11.0645 43.6202 11.9933 44.549 13.1175 44.549H41.3313C42.4555 44.549 43.3844 43.6232 43.3844 42.496V14.2822C43.3844 13.158 42.4585 12.2291 41.3313 12.2291H13.1175ZM13.1175 13.7682H41.3313C41.6169 13.7682 41.8453 13.9966 41.8453 14.2822V42.496C41.8453 42.7815 41.6169 43.01 41.3313 43.01H13.1175C12.832 43.01 12.6035 42.7815 12.6035 42.496V14.2822C12.6035 13.9966 12.832 13.7682 13.1175 13.7682ZM25.6854 26.8501V36.5262C25.6854 38.0111 25.1233 38.3929 24.1463 38.3929C23.1243 38.3929 22.4149 37.7556 21.946 36.929L19.5292 38.3929C20.2296 39.8748 21.946 41.471 24.3267 41.471C26.9599 41.471 28.7635 40.0702 28.7635 36.9951V26.8501H25.6854ZM35.2683 26.8501C32.6471 26.8501 30.9668 28.5274 30.9668 30.7307C30.9668 33.1204 32.3766 34.2507 34.4958 35.1525L35.2292 35.4681C36.5669 36.0542 37.2282 36.412 37.2282 37.4189C37.2282 38.2576 36.5909 38.8648 35.3735 38.8648C33.9247 38.8648 33.2393 37.8819 32.6111 36.8538L30.3025 38.3929C31.1652 40.0972 32.7133 41.471 35.4397 41.471C38.2292 41.471 40.3063 40.0221 40.3063 37.3799C40.3063 34.927 38.8995 33.8359 36.4016 32.7657L35.6681 32.4531C34.4086 31.906 33.8615 31.5513 33.8615 30.6706C33.8615 29.9582 34.4086 29.4111 35.2683 29.4111C36.113 29.4111 36.6541 29.7688 37.156 30.6706L39.4436 29.2037C38.4787 27.4993 37.135 26.8501 35.2683 26.8501Z" fill="white"/>
</svg>
