<svg width="100" height="100" viewBox="0 0 188 188" fill="none" xmlns="http://www.w3.org/2000/svg">
<path d="M188 94C188 145.915 145.915 188 94 188C42.0852 188 0 145.915 0 94C0 42.0852 42.0852 0 94 0C145.915 0 188 42.0852 188 94Z" fill="#DE1A31"/>
<g clip-path="url(#clip0_507_2)">
<path d="M58.965 49.7319L109.618 137.262" stroke="white" stroke-width="10"/>
<path d="M33.6594 52.1235L62.3439 114.825" stroke="white" stroke-width="10"/>
<path d="M156.347 90.0459L59.7996 114.927" stroke="white" stroke-width="10"/>
<path d="M153.698 119.88L106.824 136.8" stroke="white" stroke-width="10"/>
<path d="M151.417 119.375L119.934 74.5878" stroke="white" stroke-width="10"/>
<path d="M142.192 72.1475L121.903 75.1332" stroke="white" stroke-width="10"/>
<path d="M61.9014 51.2534L32.4249 52.2033" stroke="white" stroke-width="10"/>
<path d="M139.51 71.2485L153.482 88.876" stroke="white" stroke-width="10"/>
<path d="M151.02 118.068L153.229 116.902L156.266 122.069L153.861 123.028L151.02 118.068Z" fill="white"/>
<path d="M107.326 138.177L106.757 138.388L107.29 139.824L107.859 139.612L107.326 138.177Z" fill="white"/>
<path d="M152.925 88.5284L155.89 86.9741L158.696 92.5885L155.463 93.374L152.925 88.5284Z" fill="white"/>
<path d="M116.78 74.6567L121.701 72.0684L123.78 76.443L118.958 78.2697L116.78 74.6567Z" fill="white"/>
<path d="M29 49.1272L34.227 49.0605L36.0335 53.9949L32.0407 55.4585L29 49.1272Z" fill="white"/>
</g>
<defs>
<clipPath id="clip0_507_2">
<rect width="130" height="93" fill="white" transform="translate(29 47)"/>
</clipPath>
</defs>
</svg>
