<svg width="100" height="100" viewBox="0 0 55 55" fill="none" xmlns="http://www.w3.org/2000/svg">
<circle cx="27.3722" cy="27.3722" r="27.3722" fill="#CB6094"/>
<path d="M26.9699 15.8616C27.0477 15.9012 27.11 15.996 27.2033 15.996C27.2889 15.996 27.4212 15.9644 27.429 15.8774C27.4446 15.7668 27.2811 15.6956 27.18 15.6482C27.0477 15.5929 26.8765 15.5692 26.752 15.6403C26.7209 15.6561 26.6897 15.6956 26.7053 15.7273C26.7286 15.83 26.8843 15.8142 26.9699 15.8616ZM25.2657 15.996C25.3591 15.996 25.4213 15.9012 25.4991 15.8616C25.5847 15.8142 25.7404 15.83 25.7715 15.7352C25.7871 15.7036 25.7559 15.664 25.7248 15.6482C25.6003 15.5771 25.4291 15.6008 25.2968 15.6561C25.1957 15.7036 25.0322 15.7747 25.0478 15.8854C25.0556 15.9644 25.1879 16.0039 25.2657 15.996ZM42.471 38.0345C42.1908 37.7183 42.0586 37.1174 41.9108 36.4772C41.7708 35.8369 41.6073 35.1493 41.0935 34.7066C40.9924 34.6196 40.8914 34.5407 40.7824 34.4774C40.6811 34.4142 40.5722 34.3588 40.4633 34.3193C41.1792 32.1612 40.8992 30.0112 40.1754 28.0666C39.2882 25.6873 37.7396 23.6083 36.557 22.1855C35.2263 20.4859 33.9345 18.8734 33.9578 16.494C33.9967 12.8657 34.3547 6.12298 28.0593 6.11507C20.0909 6.09926 22.083 14.2886 21.9974 16.8023C21.8651 18.652 21.4994 20.1065 20.2465 21.9167C18.7758 23.6953 16.7058 26.5647 15.7253 29.5606C15.2584 30.9756 15.0406 32.4142 15.2429 33.7739C14.7371 34.2323 14.3558 34.9358 13.9511 35.3707C13.6243 35.7104 13.1496 35.8369 12.6282 36.0266C12.1069 36.2164 11.5388 36.501 11.1886 37.1728C11.0252 37.4812 10.9707 37.8131 10.9707 38.1531C10.9707 38.4612 11.0174 38.7775 11.0641 39.0858C11.1575 39.7261 11.2586 40.3269 11.1264 40.7299C10.7217 41.8683 10.6672 42.6588 10.9552 43.2359C11.2509 43.8129 11.8423 44.0659 12.5193 44.208C13.8655 44.4926 15.6942 44.4216 17.1338 45.1962C18.6746 46.0183 20.2387 46.3108 21.4838 46.0183C22.3865 45.8129 23.1257 45.2594 23.4992 44.4216C24.472 44.4137 25.5458 43.9948 27.2578 43.8999C28.4173 43.8051 29.8725 44.3188 31.5455 44.224C31.5922 44.4056 31.6545 44.5875 31.7401 44.7535V44.7615C32.3859 46.0816 33.5921 46.6824 34.8761 46.5797C36.1678 46.4767 37.5296 45.7099 38.6347 44.3742C39.693 43.0778 41.4359 42.5402 42.5956 41.8288C43.1713 41.4731 43.6383 41.0304 43.6772 40.3823C43.7083 39.734 43.3348 39.0147 42.471 38.0345ZM27.1955 13.0159C27.9582 11.2611 29.8569 11.2927 30.6195 12.9843C31.1253 14.1068 30.8996 15.4269 30.2849 16.1778C30.1604 16.1146 29.8258 15.9723 29.3044 15.7905C29.39 15.6956 29.5456 15.5771 29.6079 15.4269C29.9814 14.4941 29.5923 13.2926 28.8997 13.2689C28.3317 13.2294 27.8181 14.1226 27.9815 15.087C27.6624 14.9289 27.25 14.8103 26.9699 14.7392C26.8921 14.1937 26.9465 13.5851 27.1955 13.0159ZM24.0284 12.1069C24.8144 12.1069 25.647 13.2294 25.5147 14.755C25.2423 14.834 24.9622 14.9526 24.721 15.1186C24.8144 14.4151 24.4642 13.5298 23.9739 13.5693C23.3203 13.6246 23.2113 15.2451 23.8339 15.7905C23.9117 15.8537 23.9817 15.7747 23.3747 16.2253C22.1608 15.0712 22.5577 12.1069 24.0284 12.1069ZM22.9701 16.9051C23.4525 16.5415 24.0284 16.1146 24.0673 16.0751C24.433 15.7273 25.1178 14.9526 26.2384 14.9526C26.7909 14.9526 27.4523 15.1344 28.2539 15.6561C28.7441 15.9802 29.1332 16.0039 30.0125 16.3913C30.6662 16.6679 31.0786 17.158 30.8296 17.8299C30.6273 18.3912 29.9736 18.9682 29.0631 19.2607C28.1994 19.5453 27.5224 20.5255 26.0905 20.4385C25.7871 20.4227 25.5458 20.3595 25.3435 20.2725C24.721 19.9958 24.3942 19.4504 23.7872 19.0868C23.1179 18.7074 22.76 18.2647 22.6433 17.8774C22.5343 17.49 22.6433 17.1659 22.9701 16.9051ZM23.2269 43.3069C23.0168 46.0816 19.8107 46.0262 17.3673 44.7299C15.0406 43.481 12.029 44.2161 11.4143 42.9986C11.2275 42.6272 11.2275 41.9948 11.6166 40.9118V40.8961C11.8034 40.2953 11.6633 39.6312 11.5699 39.0069C11.4765 38.3902 11.4298 37.821 11.6399 37.4258C11.9123 36.8961 12.3014 36.7066 12.7916 36.5326C13.5932 36.2401 13.7099 36.2639 14.3169 35.7501C14.7448 35.2993 15.0561 34.7304 15.4296 34.3272C15.8265 33.8923 16.2078 33.6869 16.807 33.7817C17.4373 33.8766 17.982 34.3193 18.5112 35.0466L20.0364 37.8607C20.7757 39.4337 23.3903 41.6864 23.2269 43.3069ZM23.1179 41.2596C22.7989 40.738 22.3709 40.1845 21.9974 39.7104C22.5499 39.7104 23.1024 39.5364 23.2969 39.0069C23.4759 38.5166 23.2969 37.8291 22.7211 37.0385C21.6705 35.5999 19.7407 34.4696 19.7407 34.4696C18.6902 33.8055 18.0987 32.9912 17.8264 32.106C17.554 31.2206 17.5929 30.2641 17.8031 29.3235C18.2077 27.5133 19.2505 25.7505 19.9197 24.6438C20.0986 24.5095 19.9819 24.8968 19.2427 26.288C18.5812 27.5607 17.3439 30.5013 19.0403 32.8015C19.087 31.1653 19.4683 29.4974 20.1142 27.9401C21.048 25.7742 23.0168 22.0195 23.1724 19.0314C23.258 19.0947 23.5304 19.2844 23.6549 19.3556C24.0128 19.569 24.2852 19.8852 24.6354 20.1697C25.6003 20.9602 26.8532 20.897 27.9348 20.2646C28.4173 19.9879 28.8064 19.6717 29.1721 19.5532C29.9425 19.3081 30.5572 18.8734 30.9074 18.3675C31.5066 20.7705 32.9073 24.2407 33.8022 25.9323C34.2769 26.8334 35.2263 28.7385 35.6387 31.0388C35.8955 31.0309 36.1835 31.0704 36.487 31.1495C37.5607 28.3275 35.5764 25.2841 34.6737 24.4383C34.308 24.0747 34.2925 23.9166 34.4714 23.9245C35.4519 24.8098 36.7437 26.5884 37.2107 28.5883C37.4285 29.5053 37.4675 30.4617 37.2418 31.4103C38.518 31.9479 40.0354 32.8252 39.6306 34.1612C39.4595 34.1534 39.3817 34.1612 39.3039 34.1612C39.5528 33.3628 39.0004 32.7698 37.5296 32.0979C36.0044 31.4182 34.7282 31.4182 34.5493 33.0861C33.6077 33.4182 33.1252 34.2482 32.884 35.2442C32.6661 36.1293 32.6038 37.1966 32.5416 38.398C32.5027 39.0069 32.2614 39.821 32.0124 40.6904C29.5145 42.5007 26.0439 43.2913 23.1179 41.2596ZM43.148 40.3507C43.078 41.6786 39.9419 41.9237 38.2299 44.0264C37.2029 45.2672 35.9422 45.9551 34.8372 46.0421C33.7322 46.1289 32.775 45.6626 32.2147 44.5164C31.849 43.6389 32.028 42.6905 32.3003 41.6469C32.5883 40.5245 33.0162 39.3704 33.0707 38.4377C33.133 37.2361 33.203 36.1847 33.3976 35.3785C33.5999 34.5642 33.9111 34.0188 34.4636 33.7107C34.487 33.6947 34.5181 33.6869 34.5415 33.6712C34.6037 34.7145 35.1095 35.7737 36.0044 36.0031C36.985 36.2639 38.3934 35.4101 38.9925 34.7145C39.693 34.6907 40.2144 34.6434 40.7514 35.1177C41.5216 35.7896 41.3038 37.5128 42.0819 38.4061C42.9067 39.3229 43.1713 39.9475 43.148 40.3507ZM23.2736 17.8695C23.4292 18.0197 23.6393 18.2252 23.8961 18.4307C24.4097 18.8417 25.1256 19.2686 26.0205 19.2686C26.9232 19.2686 27.7714 18.8022 28.4951 18.4149C28.8764 18.2094 29.3433 17.8615 29.6468 17.5928C29.9503 17.324 30.1059 17.0948 29.888 17.0711C29.6701 17.0473 29.6857 17.2766 29.4211 17.4742C29.0787 17.7272 28.6663 18.0592 28.3395 18.2489C27.7636 18.5809 26.822 19.0552 26.0127 19.0552C25.2034 19.0552 24.5576 18.6757 24.0751 18.2884C23.8339 18.0908 23.6315 17.8932 23.4759 17.743C23.3592 17.6323 23.328 17.3793 23.1413 17.3556C23.0323 17.3477 23.0012 17.6481 23.2736 17.8695Z" fill="white"/>
</svg>
