<svg width="100" height="100" viewBox="0 0 55 55" fill="none" xmlns="http://www.w3.org/2000/svg">
<circle cx="27.3722" cy="27.3722" r="27.3722" fill="#0C7489"/>
<path d="M32.6301 16.0161C32.2357 16.0062 31.8907 16.1574 31.7132 16.5944C31.4109 17.3273 32.1634 18.0437 32.4329 18.4183C32.6202 18.6779 32.8634 18.9704 32.9981 19.2628C33.0869 19.4567 33.1 19.6506 33.1756 19.8543C33.3629 20.3571 33.6619 20.9289 33.9018 21.3956C34.0234 21.6322 34.1582 21.8786 34.3126 22.089C34.4079 22.2171 34.5689 22.2763 34.5952 22.4734C34.4375 22.6969 34.4276 23.042 34.3389 23.3246C33.938 24.5898 34.0892 26.1638 34.6708 27.0971C34.8515 27.3863 35.2755 28.0008 35.8538 27.7675C36.3599 27.5605 36.2482 26.9197 36.3928 26.3512C36.4256 26.2263 36.4059 26.131 36.4716 26.0455V26.0718C36.6228 26.3807 36.7773 26.6896 36.9317 26.9952C37.2768 27.5473 37.8847 28.1224 38.3974 28.5135C38.6635 28.7139 38.8739 29.0623 39.2189 29.1806V29.1543H39.1926C39.1269 29.0491 39.0217 29.0064 38.9363 28.9242C38.7358 28.7271 38.5124 28.4806 38.3481 28.2539C37.8781 27.6196 37.4641 26.923 37.0894 26.2C36.9087 25.8549 36.751 25.4737 36.5998 25.1221C36.5407 24.9841 36.5407 24.7804 36.4191 24.7081C36.2515 24.9677 36.0083 25.1747 35.8801 25.4803C35.6764 25.9667 35.6468 26.5615 35.5712 27.176C35.5252 27.1924 35.5449 27.1793 35.5219 27.2023C35.1637 27.1136 35.0356 26.7455 34.9041 26.43C34.5689 25.6315 34.5032 24.3433 34.8023 23.4264C34.8778 23.1865 35.2229 22.4373 35.0849 22.2171C35.0191 21.9969 34.7957 21.8721 34.6741 21.7045C34.5196 21.4974 34.3685 21.2247 34.2633 20.9848C33.9873 20.3604 33.7277 19.6375 33.4352 19.0065C33.2972 18.7042 33.0639 18.4019 32.87 18.1324C32.6564 17.8366 32.4198 17.6197 32.2522 17.2583C32.1963 17.1334 32.1141 16.9296 32.2029 16.7982C32.2292 16.7095 32.2686 16.6733 32.3573 16.6437C32.5052 16.5287 32.9193 16.6799 33.077 16.7456C33.4878 16.9165 33.8328 17.0808 34.1812 17.3108C34.3488 17.4226 34.5164 17.6362 34.7201 17.6986H34.9501C35.3149 17.7808 35.7191 17.7216 36.0543 17.8268C36.6524 18.0075 37.188 18.2901 37.6711 18.5957C39.1532 19.529 40.3658 20.8599 41.1906 22.4472C41.3254 22.7035 41.3845 22.9499 41.5028 23.2194C41.7361 23.7649 42.0352 24.3301 42.2718 24.8625C42.5051 25.3982 42.7351 25.9338 43.067 26.3774C43.2412 26.6108 43.9182 26.7389 44.2238 26.8671C44.4374 26.9591 44.7923 27.0544 44.9927 27.176C45.3838 27.4093 45.7584 27.6886 46.1232 27.9482C46.3072 28.0764 46.8659 28.3557 46.8955 28.5891C45.9917 28.566 45.3016 28.6482 44.7134 28.898C44.5458 28.9703 44.2764 28.9703 44.2501 29.1806C44.3388 29.2759 44.3552 29.4205 44.4275 29.5388C44.5688 29.7655 44.8054 30.0711 45.019 30.2322C45.2524 30.4063 45.489 30.5936 45.7387 30.7481C46.1791 31.0143 46.672 31.1687 47.0992 31.4382C47.3489 31.5992 47.602 31.7997 47.8452 31.9771C47.9668 32.0691 48.0456 32.2072 48.2034 32.263V32.2367C48.1212 32.1316 48.1015 31.987 48.0259 31.8785L47.6874 31.5401C47.3621 31.1096 46.948 30.7284 46.5077 30.4129C46.1561 30.1599 45.3707 29.8181 45.2261 29.4106L45.1998 29.3843C45.4462 29.358 45.7387 29.266 45.9687 29.2036C46.3565 29.1017 46.6983 29.128 47.0959 29.0261C47.2766 28.9735 47.4574 28.921 47.6381 28.8717V28.7665C47.4377 28.5628 47.2931 28.2867 47.0729 28.0994C46.4978 27.6098 45.8702 27.1201 45.2228 26.7126C44.8646 26.4859 44.4209 26.338 44.043 26.1474C43.9149 26.0817 43.6914 26.0488 43.606 25.9404C43.4055 25.6873 43.2971 25.3653 43.1426 25.0695C42.8206 24.4484 42.5051 23.7715 42.2192 23.1175C42.0253 22.6739 41.8971 22.2336 41.654 21.8326C40.4874 19.9168 39.232 18.7568 37.2866 17.6197C36.8726 17.3766 36.3763 17.2845 35.8506 17.1597C35.5647 17.14 35.2853 17.1235 34.9994 17.1071C34.8285 17.0348 34.6478 16.8245 34.4868 16.7193C34.0826 16.4663 33.2873 16.0259 32.6301 16.0161ZM35.4135 18.8028C35.2262 18.7995 35.0914 18.8258 34.9501 18.8553V18.8816H34.9764C35.0652 19.0657 35.2262 19.184 35.3379 19.3417C35.4233 19.5224 35.5055 19.7032 35.5909 19.8839L35.6172 19.8576C35.775 19.7459 35.8506 19.5652 35.8506 19.2924C35.7848 19.2267 35.775 19.1412 35.7224 19.0624C35.6468 18.9539 35.5055 18.8948 35.4135 18.8028ZM7.98034 29.473C7.7273 29.4829 7.45126 29.5322 7.15222 29.6275C6.65271 29.7787 6.40625 30.0777 6.40625 30.6856V37.0477H8.09207V30.8401L10.4286 36.1473C10.7177 36.8078 11.1121 37.0444 11.8843 37.0444C12.6599 37.0444 13.0378 36.8078 13.327 36.1473L15.6635 30.9748V37.0477H17.346V30.6856C17.346 30.0777 17.1028 29.7787 16.6 29.6275C15.4039 29.2496 14.5987 29.5749 14.2373 30.3932L11.8383 35.7891L9.51828 30.3932C9.25538 29.7787 8.72959 29.4435 7.98034 29.473ZM28.4895 29.4763C27.8257 29.4763 25.7586 29.5552 25.7586 31.1589V32.1973C25.7586 32.9334 26.406 33.5348 27.8092 33.6827C27.967 33.6925 28.1247 33.7057 28.2824 33.7057C28.2824 33.7057 29.919 33.6728 29.965 33.6827C30.9114 33.6827 30.8062 34.4188 30.8062 34.5239V35.3652C30.8062 35.4802 30.78 36.2065 29.9551 36.2065H25.7586V37.0477H29.9715C30.5236 37.0477 31.0593 36.9327 31.4865 36.7322C32.1963 36.4069 32.4888 35.9666 32.4888 35.3882V34.1854C32.4888 32.894 30.8851 32.8414 29.965 32.8414H28.2824C27.6219 32.8414 27.52 32.4405 27.4412 32.0001V31.1589C27.52 30.8237 27.6679 30.3702 28.2529 30.3176H32.4888V29.4763H28.4895ZM34.9961 29.4763C33.754 29.6472 33.3169 30.265 33.3169 31.1589V35.3652C33.3169 36.1834 33.7737 36.6764 34.7135 36.9327C35.029 37.0214 35.3149 37.0576 35.5844 37.0576L37.4575 37.0477H38.5584L39.4949 37.889H41.3878L40.0865 36.7158C40.6977 36.4628 40.8883 36.075 40.8883 35.3488V31.1589C40.8883 30.265 40.3066 29.6472 39.0644 29.4763H34.9961ZM41.7427 29.4763V35.329C41.7427 36.3445 42.3178 36.9163 43.8393 37.0313C43.9806 37.0379 44.1252 37.0477 44.2665 37.0477H48.4728V36.2065H44.5853C43.7177 36.2065 43.4252 35.8417 43.4252 35.3225V29.4763H41.7427ZM35.9984 30.3176H38.164C38.7358 30.3176 39.1203 30.7777 39.2058 31.1589C39.2058 31.1589 39.2189 35.076 39.2189 35.3652C39.2189 35.6544 39.0579 35.7858 39.0579 35.7858L38.6011 35.3652H36.6951L37.6317 36.2065H35.9984C35.4135 36.2065 35.0849 35.7727 34.9994 35.3652V31.2443C34.9994 30.7974 35.3412 30.3176 35.9984 30.3176ZM18.1873 32.0001C18.2201 32.033 18.1873 35.5854 18.1873 35.6544C18.2004 36.3905 19.1337 37.0346 20.596 37.0477H23.2349V37.1036C23.2349 37.2613 23.3499 37.7871 22.3936 37.889C22.3837 37.889 18.1971 37.889 18.1873 37.889V38.7302H22.5743C23.317 38.7072 24.9272 38.5396 24.9174 37.2515C24.9174 37.2285 24.924 32.0001 24.9174 32.0001H23.2349V36.2065C23.2086 36.2065 21.1514 36.213 20.7373 36.2065C19.9257 36.1933 19.8566 35.73 19.8698 35.5525V32.0001H18.1873Z" fill="white"/>
</svg>
