<svg width="100" height="100" viewBox="0 0 55 55" fill="none" xmlns="http://www.w3.org/2000/svg">
<circle cx="27.3722" cy="27.3722" r="27.3722" fill="#6180B6"/>
<path d="M27.3946 16.0156C21.7958 16.0156 16.7192 17.1879 12.9699 19.1451C9.22058 21.1023 6.69745 23.9219 6.69745 27.2266C6.69745 30.5312 9.22058 33.3508 12.9699 35.308C16.7192 37.2652 21.7958 38.4375 27.3946 38.4375C32.9933 38.4375 38.0699 37.2652 41.8192 35.308C45.5685 33.3508 48.0917 30.5312 48.0917 27.2266C48.0917 23.9219 45.5685 21.1023 41.8192 19.1451C38.0699 17.1879 32.9933 16.0156 27.3946 16.0156ZM27.3946 17.7404C32.7508 17.7404 37.5915 18.8824 41.0208 20.6745C44.4501 22.4633 46.3669 24.8146 46.3669 27.2266C46.3669 29.6385 44.4501 31.9899 41.0208 33.7786C37.5915 35.5708 32.7508 36.7127 27.3946 36.7127C22.0384 36.7127 17.1976 35.5708 13.7683 33.7786C10.339 31.9899 8.42221 29.6385 8.42221 27.2266C8.42221 24.8146 10.339 22.4633 13.7683 20.6745C17.1976 18.8824 22.0384 17.7404 27.3946 17.7404ZM25.2454 19.4651L23.0827 29.8137H25.3464L26.4379 24.6394H28.2468C28.8229 24.6394 29.2069 24.7337 29.3854 24.9258C29.5606 25.1178 29.5977 25.4816 29.4966 26.0037L28.6713 29.8137H30.9687L31.8648 25.6938C32.0568 24.7068 31.912 23.9825 31.4336 23.5412C30.9451 23.0932 30.0861 22.9147 28.806 22.9147H26.7882L27.5057 19.4651H25.2454ZM15.3212 22.9147L13.5729 32.4008H15.8535L16.3083 29.8137H17.7298C20.701 29.8137 22.318 29.1265 22.921 26.5764C23.4397 24.3834 22.1125 22.9147 19.9195 22.9147H15.3212ZM33.4312 22.9147L31.6829 32.4008H33.9635L34.4182 29.8137H35.8398C38.811 29.8137 40.428 29.1265 41.0309 26.5764C41.5497 24.3834 40.2225 22.9147 38.0295 22.9147H33.4312ZM17.2818 24.6394H19.0571C20.5326 24.6394 20.8425 25.3031 20.765 26.0408C20.5663 27.9441 19.3805 28.0889 18.1071 28.0889H16.6283L17.2818 24.6394ZM35.3918 24.6394H37.1671C38.6426 24.6394 38.9525 25.3031 38.875 26.0408C38.6762 27.9441 37.4905 28.0889 36.2171 28.0889H34.7383L35.3918 24.6394Z" fill="white"/>
</svg>
