<svg width="100" height="100" viewBox="0 0 55 55" fill="none" xmlns="http://www.w3.org/2000/svg">
<path d="M27.37 54.74C42.486 54.74 54.74 42.486 54.74 27.37C54.74 12.254 42.486 0 27.37 0C12.254 0 0 12.254 0 27.37C0 42.486 12.254 54.74 27.37 54.74Z" fill="#C01F59"/>
<path d="M39.2815 10.1134C36.5047 10.2103 34.0812 11.7407 32.2771 13.8576C30.2796 16.1787 28.9506 18.9317 27.9931 21.7418C26.2803 20.338 24.9589 18.5207 22.211 17.7283C20.087 17.1184 17.8561 17.3703 15.8047 18.8988C14.8328 19.6247 14.1633 20.7221 13.8449 21.7536C13.0206 24.4343 14.7116 26.82 15.4797 27.6766L17.1589 29.4762C17.505 29.829 18.3388 30.7495 17.9312 32.0693C17.4907 33.5041 15.7608 34.4332 13.9865 33.8858C13.1941 33.6441 12.0556 33.0538 12.3105 32.2224C12.4159 31.8824 12.6593 31.628 12.7897 31.3339C12.9094 31.0814 12.9665 30.892 13.0029 30.7808C13.3271 29.7223 12.8842 28.3453 11.7505 27.9957C10.6929 27.6715 9.61072 27.9283 9.19119 29.2902C8.71542 30.8372 9.4557 33.645 13.4214 34.8677C18.0676 36.2952 21.998 33.7654 22.5554 30.4658C22.9066 28.3991 21.9734 26.8639 20.2639 24.8892L18.871 23.3487C18.0272 22.5058 17.7375 21.0691 18.6107 19.9649C19.3476 19.0335 20.3971 18.636 22.1158 19.1034C24.6247 19.7847 25.743 21.5254 27.6091 22.9294C26.8386 25.4567 26.3351 27.9933 25.8792 30.268L25.6014 31.9639C24.2676 38.9605 23.2493 42.8024 20.6032 45.008C20.0701 45.3871 19.308 45.9546 18.1594 45.9942C17.5572 46.0128 17.3626 45.5986 17.3543 45.4182C17.34 44.9954 17.6962 44.8017 17.9329 44.6114C18.2866 44.4185 18.8214 44.0986 18.785 43.0737C18.7465 41.8626 17.7432 40.8125 16.2931 40.8606C15.2068 40.8976 13.5511 41.9199 13.6134 43.7911C13.6782 45.7239 15.4797 47.1724 18.1957 47.0807C19.6476 47.0308 22.8897 46.4398 26.0849 42.6416C29.8038 38.2876 30.8439 33.2962 31.6263 29.643L32.4995 24.8199C32.9847 24.878 33.5034 24.9167 34.0677 24.9302C38.6995 25.0279 41.0163 22.6288 41.0507 20.8837C41.0736 19.8276 40.3577 18.7884 39.3555 18.812C38.6381 18.8323 37.7368 19.3097 37.5204 20.3019C37.3092 21.2753 38.9943 22.1537 37.6772 23.0068C36.7414 23.6124 35.064 24.0392 32.7016 23.6924L33.1312 21.3182C34.0079 16.8161 35.0892 11.2781 39.1913 11.1434C39.4902 11.1283 40.5842 11.1569 40.6096 11.8803C40.6171 12.1219 40.5572 12.1835 40.2743 12.7367C39.9863 13.168 39.8777 13.5351 39.8911 13.957C39.9307 15.1065 40.8048 15.862 42.069 15.8164C43.7616 15.7617 44.2485 14.1137 44.2207 13.2674C44.1523 11.2788 42.0564 10.0225 39.2813 10.1134H39.2815Z" fill="white"/>
</svg>
