<svg width="100" height="100" viewBox="0 0 55 55" fill="none" xmlns="http://www.w3.org/2000/svg">
<circle cx="27.37" cy="27.37" r="27.37" fill="#272E69"/>
<path d="M37.3149 26.4603C37.3149 24.593 36.6671 23.3004 36.1127 22.2941L35.9428 22.0079C35.2695 20.8849 34.6811 19.8984 34.6811 18.7489C34.6811 17.3617 35.6964 16.0669 37.128 16.0669C37.1705 16.0669 37.2108 16.0713 37.2512 16.0735L37.317 16.0801C34.6326 13.524 31.1193 12.1076 27.4743 12.1122C25.0586 12.1109 22.6805 12.7328 20.5544 13.9217C18.4282 15.1107 16.6209 16.8293 15.2951 18.9229C15.635 18.9339 15.9599 18.9427 16.2339 18.9427C17.7569 18.9427 20.1167 18.7511 20.1167 18.7511C20.9026 18.7027 20.996 19.8984 20.2101 19.9953C20.2101 19.9953 19.4221 20.0921 18.5428 20.1384L23.8528 36.5079L27.0389 26.5858L24.7662 20.1362C23.9824 20.0877 23.239 19.9931 23.239 19.9931C22.4531 19.9446 22.5466 18.6983 23.3303 18.7467C23.3303 18.7467 25.739 18.9383 27.1706 18.9383C28.6956 18.9383 31.0575 18.7467 31.0575 18.7467C31.8434 18.6983 31.9348 19.8962 31.1489 19.9931C31.1489 19.9931 30.3587 20.0877 29.4815 20.1362L34.7491 36.3801L36.2019 31.3442L36.3166 30.9633C36.8901 29.0696 37.3128 27.6713 37.3128 26.4581L37.3149 26.4603ZM12.8971 27.2243C12.8969 30.0621 13.6674 32.8426 15.1204 35.2477C16.5733 37.6527 18.65 39.5851 21.1128 40.8237L14.1566 21.072C13.3237 23.008 12.8944 25.1045 12.8971 27.2243Z" fill="white"/>
<path d="M23.3559 41.7201L27.7314 28.5457L32.211 41.2731C32.2407 41.3458 32.2747 41.414 32.3151 41.4801C29.4273 42.5348 26.2924 42.6187 23.3559 41.7201ZM40.2632 19.9734C40.3269 20.4556 40.363 20.9709 40.363 21.528C40.363 23.0606 40.0869 24.7847 39.2543 26.9404L34.8023 40.2844C38.0876 38.3056 40.4973 35.0747 41.5178 31.2805C42.5383 27.4864 42.0889 23.429 40.2653 19.9734H40.2632Z" fill="white"/>
<path fill-rule="evenodd" clip-rule="evenodd" d="M10.4821 27.2244C10.4821 17.5115 18.1053 9.60862 27.4744 9.60862C36.8413 9.60862 44.4666 17.5115 44.4666 27.2244C44.4666 36.9373 36.8413 44.8402 27.4744 44.8402C18.1053 44.8402 10.4821 36.9373 10.4821 27.2244ZM11.2616 27.2244C11.2616 36.4925 18.5343 44.0321 27.4744 44.0321C36.4123 44.0321 43.6849 36.4925 43.6849 27.2244C43.6849 17.9541 36.4123 10.4167 27.4744 10.4167C18.5322 10.4167 11.2616 17.9541 11.2616 27.2244Z" fill="white"/>
</svg>
