<svg width="50" height="50" viewBox="0 0 22 22" fill="none" xmlns="http://www.w3.org/2000/svg">
<g clip-path="url(#clip0_5_318)">
<path d="M11 0.27225C8.387 0.271013 5.85892 1.19998 3.86844 2.89279C1.87795 4.58561 0.555075 6.93171 0.136695 9.51097C-0.281684 12.0902 0.231759 14.7342 1.58508 16.9694C2.93841 19.2046 5.04322 20.8851 7.52261 21.7099C8.07261 21.8116 8.27473 21.4706 8.27473 21.1805C8.27473 20.9179 8.26373 20.0516 8.25961 19.1331C5.19886 19.7986 4.55398 17.8351 4.55398 17.8351C4.05348 16.5632 3.33298 16.225 3.33298 16.225C2.33473 15.5416 3.40861 15.5568 3.40861 15.5568C4.51273 15.6338 5.09436 16.6898 5.09436 16.6898C6.07611 18.3714 7.66836 17.8846 8.29536 17.6041C8.39436 16.8933 8.67898 16.4079 8.99386 16.1329C6.55048 15.8551 3.98198 14.9119 3.98198 10.6961C3.98198 9.49575 4.41236 8.514 5.11498 7.744C5.00086 7.46625 4.62411 6.34838 5.22086 4.83313C5.22086 4.83313 6.14486 4.5375 8.24723 5.96063C9.1445 5.71655 10.0701 5.59218 11 5.59075C11.935 5.59488 12.8769 5.71725 13.7555 5.96063C15.8551 4.5375 16.7777 4.83313 16.7777 4.83313C17.3759 6.34838 17.0005 7.46763 16.8864 7.744C17.5917 8.514 18.018 9.49575 18.018 10.6961C18.018 14.9215 15.444 15.851 12.9951 16.1233C13.3897 16.4643 13.7417 17.1339 13.7417 18.1596C13.7417 19.6309 13.7294 20.8161 13.7294 21.1778C13.7294 21.4706 13.9274 21.813 14.4856 21.7058C16.9645 20.88 19.0686 19.1989 20.421 16.9633C21.7735 14.7277 22.286 12.0837 21.8668 9.50472C21.4476 6.92572 20.1241 4.58016 18.1333 2.888C16.1424 1.19585 13.6142 0.26761 11.0014 0.2695L11 0.27225Z" fill="#3F51B5"/>
</g>
<defs>
<clipPath id="clip0_5_318">
<rect width="22" height="22" fill="white"/>
</clipPath>
</defs>
</svg>
