<svg width="50" height="50" viewBox="0 0 22 22" fill="none" xmlns="http://www.w3.org/2000/svg">
<circle cx="11" cy="11" r="11" fill="#3F51B5"/>
<path d="M11 8.75C10.4033 8.75 9.83097 8.98705 9.40901 9.40901C8.98705 9.83097 8.75 10.4033 8.75 11C8.75 11.5967 8.98705 12.169 9.40901 12.591C9.83097 13.0129 10.4033 13.25 11 13.25C11.5967 13.25 12.169 13.0129 12.591 12.591C13.0129 12.169 13.25 11.5967 13.25 11C13.25 10.4033 13.0129 9.83097 12.591 9.40901C12.169 8.98705 11.5967 8.75 11 8.75ZM11 7.25C11.9946 7.25 12.9484 7.64509 13.6517 8.34835C14.3549 9.05161 14.75 10.0054 14.75 11C14.75 11.9946 14.3549 12.9484 13.6517 13.6517C12.9484 14.3549 11.9946 14.75 11 14.75C10.0054 14.75 9.05161 14.3549 8.34835 13.6517C7.64509 12.9484 7.25 11.9946 7.25 11C7.25 10.0054 7.64509 9.05161 8.34835 8.34835C9.05161 7.64509 10.0054 7.25 11 7.25ZM15.875 7.0625C15.875 7.31114 15.7762 7.5496 15.6004 7.72541C15.4246 7.90123 15.1861 8 14.9375 8C14.6889 8 14.4504 7.90123 14.2746 7.72541C14.0988 7.5496 14 7.31114 14 7.0625C14 6.81386 14.0988 6.5754 14.2746 6.39959C14.4504 6.22377 14.6889 6.125 14.9375 6.125C15.1861 6.125 15.4246 6.22377 15.6004 6.39959C15.7762 6.5754 15.875 6.81386 15.875 7.0625ZM11 5C9.1445 5 8.8415 5.00525 7.97825 5.0435C7.39025 5.07125 6.99575 5.15 6.62975 5.2925C6.32346 5.40495 6.04656 5.5852 5.81975 5.81975C5.58501 6.04655 5.40451 6.32344 5.29175 6.62975C5.14925 6.99725 5.0705 7.391 5.0435 7.97825C5.0045 8.80625 5 9.09575 5 11C5 12.8555 5.00525 13.1585 5.0435 14.0217C5.07125 14.609 5.15 15.0043 5.29175 15.3695C5.41925 15.6958 5.56925 15.9305 5.81825 16.1795C6.071 16.4315 6.30575 16.5822 6.62825 16.7067C6.99875 16.85 7.39325 16.9295 7.97825 16.9565C8.80625 16.9955 9.09575 17 11 17C12.8555 17 13.1585 16.9948 14.0217 16.9565C14.6082 16.9288 15.0035 16.85 15.3695 16.7083C15.6753 16.5952 15.9521 16.4154 16.1795 16.1818C16.4323 15.929 16.583 15.6943 16.7075 15.3717C16.85 15.002 16.9295 14.6067 16.9565 14.0217C16.9955 13.1937 17 12.9043 17 11C17 9.1445 16.9948 8.8415 16.9565 7.97825C16.9288 7.39175 16.85 6.99575 16.7075 6.62975C16.5945 6.32375 16.4143 6.04697 16.1803 5.81975C15.9536 5.58488 15.6766 5.40438 15.3702 5.29175C15.0027 5.14925 14.6082 5.0705 14.0217 5.0435C13.1937 5.0045 12.9043 5 11 5ZM11 3.5C13.0378 3.5 13.292 3.5075 14.0915 3.545C14.8903 3.5825 15.434 3.70775 15.9125 3.89375C16.4075 4.08425 16.8245 4.34225 17.2415 4.7585C17.6229 5.13342 17.918 5.58694 18.1063 6.0875C18.2915 6.56525 18.4175 7.10975 18.455 7.9085C18.4903 8.708 18.5 8.96225 18.5 11C18.5 13.0378 18.4925 13.292 18.455 14.0915C18.4175 14.8903 18.2915 15.434 18.1063 15.9125C17.9185 16.4133 17.6233 16.867 17.2415 17.2415C16.8665 17.6227 16.413 17.9178 15.9125 18.1063C15.4347 18.2915 14.8903 18.4175 14.0915 18.455C13.292 18.4903 13.0378 18.5 11 18.5C8.96225 18.5 8.708 18.4925 7.9085 18.455C7.10975 18.4175 6.566 18.2915 6.0875 18.1063C5.58674 17.9184 5.13315 17.6232 4.7585 17.2415C4.37705 16.8666 4.08195 16.4131 3.89375 15.9125C3.70775 15.4347 3.5825 14.8903 3.545 14.0915C3.50975 13.292 3.5 13.0378 3.5 11C3.5 8.96225 3.5075 8.708 3.545 7.9085C3.5825 7.109 3.70775 6.566 3.89375 6.0875C4.08143 5.58663 4.3766 5.13299 4.7585 4.7585C5.13325 4.37692 5.58682 4.0818 6.0875 3.89375C6.566 3.70775 7.109 3.5825 7.9085 3.545C8.708 3.50975 8.96225 3.5 11 3.5Z" fill="white"/>
</svg>
