<svg width="50" height="50" viewBox="0 0 22 22" fill="none" xmlns="http://www.w3.org/2000/svg">
<circle cx="11" cy="11" r="11" fill="#3F51B5"/>
<path d="M6.05352 9.24043H8.14004V15.9518H6.05352V9.24043ZM7.09766 8.32285C7.76387 8.32285 8.30703 7.78145 8.30703 7.11348C8.30703 6.95466 8.27575 6.7974 8.21497 6.65067C8.1542 6.50394 8.06511 6.37062 7.95281 6.25832C7.84051 6.14602 7.70719 6.05694 7.56046 5.99616C7.41374 5.93538 7.25647 5.9041 7.09766 5.9041C6.93884 5.9041 6.78158 5.93538 6.63485 5.99616C6.48812 6.05694 6.3548 6.14602 6.2425 6.25832C6.1302 6.37062 6.04112 6.50394 5.98034 6.65067C5.91956 6.7974 5.88828 6.95466 5.88828 7.11348C5.88652 7.78145 6.42793 8.32285 7.09766 8.32285ZM11.5326 12.6312C11.5326 11.7559 11.6996 10.9086 12.7842 10.9086C13.8529 10.9086 13.8688 11.9088 13.8688 12.6875V15.9518H15.9535V12.2709C15.9535 10.4639 15.5633 9.07344 13.4521 9.07344C12.4379 9.07344 11.7576 9.63066 11.4781 10.158H11.45V9.24043H9.44785V15.9518H11.5326V12.6312Z" fill="white"/>
</svg>
